<svg width="16" height="37" viewBox="0 0 16 37" fill="none" xmlns="http://www.w3.org/2000/svg">
<path d="M9.17536 1.30327L9.17536 -2.74409e-07L6.2779 -4.0106e-07L6.2779 1.30327L9.17536 1.30327ZM6.2779 1.30327L6.2779 34.3195L9.17536 34.3195L9.17536 1.30327L6.2779 1.30327ZM15.4531 28.0273C10.4309 28.0273 6.27783 31.5825 6.27782 36.0572L9.17528 36.0572C9.17528 33.102 11.9408 30.6338 15.4531 30.6338L15.4531 28.0273ZM9.17528 36.0572C9.17528 31.5825 5.02228 28.0272 1.0219e-05 28.0272L1.0105e-05 30.6337C3.51225 30.6337 6.27782 33.1018 6.27782 36.0572L9.17528 36.0572Z" fill="white"/>
</svg>
